<?xml version="1.0" standalone="no"?>
<!DOCTYPE svg PUBLIC "-//W3C//DTD SVG 20010904//EN"
 "http://www.w3.org/TR/2001/REC-SVG-20010904/DTD/svg10.dtd">
<svg version="1.0" xmlns="http://www.w3.org/2000/svg"
 width="300.000000pt" height="300.000000pt" viewBox="0 0 300.000000 300.000000"
 preserveAspectRatio="xMidYMid meet">
<metadata>
Created by potrace 1.11, written by Peter Selinger 2001-2013
</metadata>
<g transform="translate(0.000000,300.000000) scale(0.100000,-0.100000)"
fill="#000000" stroke="none">
<path d="M1235 2983 c-227 -27 -446 -106 -621 -223 -103 -69 -255 -223 -327
-331 -184 -278 -278 -599 -280 -959 -2 -184 5 -260 35 -404 143 -701 668
-1075 1488 -1061 141 3 280 14 355 29 451 89 761 313 943 682 122 245 172 489
167 809 -3 180 -10 250 -37 374 -76 359 -269 663 -533 841 -193 130 -449 219
-710 246 -122 12 -366 11 -480 -3z m433 -54 c98 -26 221 -89 250 -128 12 -17
35 -37 50 -45 40 -21 139 -31 156 -16 19 15 42 2 89 -50 65 -71 59 -75 -113
-76 -82 0 -153 -3 -156 -7 -15 -15 10 -20 112 -23 58 -1 108 -5 111 -8 3 -3
-10 -21 -30 -41 -35 -35 -60 -44 -72 -25 -7 11 -234 14 -309 4 -60 -9 -75 -32
-49 -77 10 -18 81 -79 158 -137 235 -177 305 -263 336 -408 18 -90 6 -230 -30
-339 -47 -143 -90 -215 -188 -316 -80 -83 -146 -123 -330 -202 -192 -82 -229
-101 -268 -133 -131 -109 -138 -319 -15 -442 156 -156 405 -111 502 90 31 65
31 187 -1 253 -39 80 -126 150 -214 171 -27 6 -23 10 60 50 48 24 122 64 163
89 41 26 82 47 91 47 21 0 118 -103 154 -164 53 -91 77 -172 82 -286 10 -198
-47 -351 -181 -481 -114 -111 -245 -168 -403 -176 -359 -19 -656 263 -655 622
0 134 37 249 116 360 91 127 211 206 380 250 127 33 217 78 287 143 149 138
195 303 124 447 -26 55 -140 179 -210 231 -22 16 -45 34 -51 39 -6 6 -26 21
-44 35 -18 14 -59 45 -89 70 -55 44 -57 45 -146 50 l-90 5 63 34 c44 24 59 37
50 43 -36 23 -139 41 -272 48 -33 1 101 92 157 106 28 6 29 8 22 53 -10 65
-18 76 -87 115 l-62 35 29 11 c52 21 105 23 189 10 77 -12 85 -11 129 8 54 24
59 37 20 47 -35 8 -205 87 -200 92 2 2 48 -6 102 -17 97 -20 195 -26 209 -13
3 4 -38 17 -91 30 -156 37 -155 36 -98 43 81 8 185 0 263 -21z m-192 -804
c200 -47 377 -212 391 -363 16 -175 -138 -365 -346 -426 l-54 -16 36 37 c58
58 82 116 81 198 -1 145 -105 255 -247 261 -157 7 -277 -109 -277 -266 1 -107
43 -174 142 -225 25 -14 65 -27 87 -31 23 -4 41 -9 41 -13 0 -3 -24 -18 -53
-33 -64 -34 -131 -88 -177 -144 -50 -61 -62 -63 -127 -18 -136 94 -220 251
-230 434 -10 175 42 314 162 436 82 83 172 136 276 164 89 23 211 25 295 5z
m-456 -1120 c0 -2 -9 -19 -20 -37 -25 -40 -60 -150 -60 -187 0 -26 -3 -28 -96
-45 -53 -10 -128 -29 -167 -42 -88 -30 -91 -30 -82 4 29 120 153 247 289 294
47 16 136 25 136 13z"/>
<path d="M1841 2731 c-12 -8 -12 -12 -2 -25 10 -12 18 -13 33 -5 15 8 17 13 7
25 -13 16 -19 17 -38 5z"/>
</g>
</svg>
